<svg width="201" height="168" viewBox="0 0 201 168" fill="none" xmlns="http://www.w3.org/2000/svg">
<mask id="mask0_702_81" style="mask-type:alpha" maskUnits="userSpaceOnUse" x="33" y="0" width="168" height="168">
<path d="M117.054 167.3C163.163 167.3 200.542 129.849 200.542 83.65C200.542 37.4514 163.163 0 117.054 0C70.9452 0 33.5664 37.4514 33.5664 83.65C33.5664 129.849 70.9452 167.3 117.054 167.3Z" fill="white"/>
</mask>
<g mask="url(#mask0_702_81)">
<path d="M117.054 167.3C163.163 167.3 200.542 129.849 200.542 83.65C200.542 37.4514 163.163 0 117.054 0C70.9452 0 33.5664 37.4514 33.5664 83.65C33.5664 129.849 70.9452 167.3 117.054 167.3Z" fill="#F9C614"/>
<path fill-rule="evenodd" clip-rule="evenodd" d="M155.032 118.747L158.092 160.383L146.697 163.067L140.402 122.605L155.032 118.747Z" fill="#F6D3C9"/>
<path fill-rule="evenodd" clip-rule="evenodd" d="M156.052 124.137C150.142 127.635 147.395 132.211 147.81 137.865C148.226 143.519 149.245 151.563 150.868 161.997L146.697 163.066L140.402 122.604L156.052 124.137Z" fill="#EAC3B7"/>
<path fill-rule="evenodd" clip-rule="evenodd" d="M124.928 90.6998C121.036 98.7423 117.884 104.254 115.471 107.236C106.529 100.017 102.115 95.0257 102.229 92.2635C91.376 93.6653 84.4688 95.3619 81.5072 97.3531C78.5455 99.3444 70.5678 105.101 57.5742 114.622C61.9414 122.563 67.421 128.831 74.0129 133.428L87.3329 125.262L85.8809 169.202L145.292 169.019L139.16 126.841L158.541 124.103C155.069 104.536 148.831 93.9225 139.828 92.2635C130.824 90.6045 125.857 90.0833 124.928 90.6998Z" fill="#EC677E"/>
<path fill-rule="evenodd" clip-rule="evenodd" d="M102.229 92.2637C91.376 93.6655 84.4688 95.3621 81.5072 97.3533C78.5455 99.3446 70.5678 105.101 57.5742 114.622C61.9414 122.563 67.421 128.832 74.0129 133.429L87.3329 125.262L85.8809 169.202L116.322 169.88C111.146 169.145 105.921 162.62 100.648 150.304C92.7382 131.83 102.058 96.4069 102.229 92.2637Z" fill="#E65971"/>
<path fill-rule="evenodd" clip-rule="evenodd" d="M136.642 112.086C134.111 112.935 133.14 115.013 133.73 118.321C134.32 121.628 136.211 124.709 139.404 127.565C137.449 120.008 136.528 114.848 136.642 112.086Z" fill="#E65971"/>
<path d="M139.16 126.841L158.54 124.104" stroke="#D2475F" stroke-width="2.23839"/>
</g>
<mask id="mask1_702_81" style="mask-type:alpha" maskUnits="userSpaceOnUse" x="0" y="65" width="79" height="75">
<path d="M1.89995 65.5668C2.4741 65.6172 3.91756 66.595 5.42406 68.0216C5.55375 68.1444 5.72531 68.3874 5.93874 68.7506C6.27989 68.9233 6.517 69.0567 6.65008 69.151C9.37924 71.0836 10.7408 72.3744 11.018 72.5339L11.0435 72.5467L5.38444 67.1561C4.79005 66.6143 4.678 66.1961 5.0483 65.9016C5.4186 65.6071 6.14044 65.7481 7.21383 66.3244C7.93318 66.9748 8.55933 67.5741 9.09231 68.1222C9.98514 68.5967 13.6504 70.8327 13.9143 71.1446C15.2109 70.874 16.1861 70.9887 16.84 71.4889C17.764 72.1957 19.3817 72.0876 21.5821 72.9304L21.6852 73.0777C20.207 70.9927 19.2596 69.1728 18.843 67.618C18.4263 66.0631 19.3356 65.8195 21.5707 66.8871C22.9488 69.4961 25.086 70.9972 27.9825 71.3903C32.3272 71.98 33.3523 76.5049 33.5687 79.018C33.713 80.6935 34.4964 83.2243 35.9188 86.6105C35.8705 86.633 35.8225 86.6552 35.7746 86.6773C39.027 96.5595 42.6908 114.029 44.9129 122.322C45.1191 123.091 52.1316 120.194 68.844 109.352C79.6034 102.372 79.35 109.13 77.7814 115.194L77.6516 115.684C77.1221 117.636 76.4819 119.473 76.0617 120.704L75.9473 121.041C75.7497 121.625 75.6221 122.029 75.6126 122.179C75.1391 129.722 44.3971 140.809 38.9081 139.669C34.3004 138.711 31.1523 128.826 29.464 110.012L29.4057 109.352L27.1546 87.7179L27.1384 87.6658C26.4438 85.0737 25.1284 83.6102 24.5741 83.6326L24.5157 83.6412C24.0013 83.779 16.8398 79.988 13.2469 79.0542C10.8516 78.4316 8.50418 77.5102 6.20459 76.2902C3.41749 72.0732 1.56759 69.5637 0.654889 68.7618C-0.714153 67.559 0.394866 67.2175 0.994599 67.3454C1.55149 67.464 2.84592 68.3164 3.6202 68.8127L3.65387 68.8357L3.63601 68.8203C2.95651 68.2579 0.385358 65.5277 1.89995 65.5668Z" fill="white"/>
</mask>
<g mask="url(#mask1_702_81)">
<path d="M1.89995 65.5668C2.4741 65.6172 3.91756 66.595 5.42406 68.0216C5.55375 68.1444 5.72531 68.3874 5.93874 68.7506C6.27989 68.9233 6.517 69.0567 6.65008 69.151C9.37924 71.0836 10.7408 72.3744 11.018 72.5339L11.0435 72.5467L5.38444 67.1561C4.79005 66.6143 4.678 66.1961 5.0483 65.9016C5.4186 65.6071 6.14044 65.7481 7.21383 66.3244C7.93318 66.9748 8.55933 67.5741 9.09231 68.1222C9.98514 68.5967 13.6504 70.8327 13.9143 71.1446C15.2109 70.874 16.1861 70.9887 16.84 71.4889C17.764 72.1957 19.3817 72.0876 21.5821 72.9304L21.6852 73.0777C20.207 70.9927 19.2596 69.1728 18.843 67.618C18.4263 66.0631 19.3356 65.8195 21.5707 66.8871C22.9488 69.4961 25.086 70.9972 27.9825 71.3903C32.3272 71.98 33.3523 76.5049 33.5687 79.018C33.713 80.6935 34.4964 83.2243 35.9188 86.6105C35.8705 86.633 35.8225 86.6552 35.7746 86.6773C39.027 96.5595 42.6908 114.029 44.9129 122.322C45.1191 123.091 52.1316 120.194 68.844 109.352C79.6034 102.372 79.35 109.13 77.7814 115.194L77.6516 115.684C77.1221 117.636 76.4819 119.473 76.0617 120.704L75.9473 121.041C75.7497 121.625 75.6221 122.029 75.6126 122.179C75.1391 129.722 44.3971 140.809 38.9081 139.669C34.3004 138.711 31.1523 128.826 29.464 110.012L29.4057 109.352L27.1546 87.7179L27.1384 87.6658C26.4438 85.0737 25.1284 83.6102 24.5741 83.6326L24.5157 83.6412C24.0013 83.779 16.8398 79.988 13.2469 79.0542C10.8516 78.4316 8.50418 77.5102 6.20459 76.2902C3.41749 72.0732 1.56759 69.5637 0.654889 68.7618C-0.714153 67.559 0.394866 67.2175 0.994599 67.3454C1.55149 67.464 2.84592 68.3164 3.6202 68.8127L3.65387 68.8357L3.63601 68.8203C2.95651 68.2579 0.385358 65.5277 1.89995 65.5668Z" fill="#F6D3C9"/>
<path fill-rule="evenodd" clip-rule="evenodd" d="M21.6221 79.2933C23.8824 79.9879 24.1702 80.5025 25.9381 80.1471C27.7061 79.7918 29.3206 79.9959 29.1369 79.2101C29.9044 78.9758 30.4648 78.5464 30.818 77.922C31.3479 76.9853 31.9924 74.623 30.4964 73.9052C29.0003 73.1875 25.6437 72.4809 24.6748 71.6158C23.7059 70.7506 22.8936 69.1171 22.767 69.985C22.6404 70.8529 23.1006 71.9191 23.1806 72.4066C23.2606 72.8941 24.1928 74.1661 23.12 74.1696C22.0472 74.1731 19.7264 72.9485 18.9199 72.6845C18.1133 72.4205 16.1909 72.4973 15.9393 72.5788C15.6876 72.6603 12.6202 71.3687 11.8598 70.5663C11.0994 69.7639 10.2655 69.9389 10.8811 70.5316C11.4966 71.1243 12.036 72.1115 12.5218 72.4576C13.0076 72.8037 13.0523 73.7571 13.2299 73.8188C13.4075 73.8805 12.3794 74.3637 11.7498 73.7663C11.1201 73.1689 9.89196 72.2962 9.69726 71.9284C9.50255 71.5607 8.65788 70.8001 8.64925 71.0474C8.64061 71.2947 8.69215 71.81 9.21308 72.3403C9.73396 72.8705 10.4702 73.299 10.7711 73.7316C11.072 74.1642 10.9476 74.9681 10.3975 74.4821C9.84736 73.9962 9.39873 74.1793 9.61046 74.4542C9.82216 74.7292 9.85096 75.1244 11.2347 75.492C12.6183 75.8595 16.1688 76.8364 17.1159 77.436C18.063 78.0357 19.3618 78.5987 21.6221 79.2933Z" fill="#FBDBD1"/>
<path d="M28.4288 78.2922C25.8262 76.659 23.0283 75.9481 20.0352 76.1594" stroke="#EAC3B7" stroke-width="0.616016"/>
<path fill-rule="evenodd" clip-rule="evenodd" d="M-0.734375 66.6162C2.7504 70.0765 5.61665 72.9561 7.86438 75.255C8.47274 75.8772 3.38307 68.7255 4.09862 69.0001C6.02404 69.739 8.16247 75.1732 10.54 76.2416C15.5545 78.495 21.0135 79.9654 21.7102 80.2899C24.2794 81.4868 27.6307 82.6545 28.3237 85.2409C29.0167 87.8272 30.7048 97.2169 31.2356 99.1978C31.7664 101.179 34.3987 127.864 41.5131 130.992C44.9287 132.494 62.3143 126.226 77.9375 110.893C80.3763 108.5 77.6396 124.239 78.9695 124.225C82.9185 124.182 69.3861 130.199 38.3724 142.275L33.1359 132.728L30.6393 127.174L28.4492 119L27.8601 102.068L25.7066 90.6221L24.7018 86.872L21.1289 85.0742L17.7439 82.49C11.7267 81.0891 7.55597 79.4681 5.23184 77.6272C2.9077 75.7862 0.918974 72.1159 -0.734375 66.6162Z" fill="#EAC3B7"/>
</g>
<path fill-rule="evenodd" clip-rule="evenodd" d="M102.229 92.7861C91.376 94.1879 84.4688 95.8844 81.5072 97.8757C78.5455 99.8669 70.5678 105.623 57.5742 115.144C61.9414 123.084 67.421 129.353 74.0129 133.95L89.4334 124.359C97.8496 106.072 102.115 95.5482 102.229 92.7861Z" fill="#EC677E"/>
<path fill-rule="evenodd" clip-rule="evenodd" d="M102.229 92.7861C97.8151 104.369 94.0439 112.442 90.9158 117.006C88.9904 119.815 82.2749 124.559 70.7695 131.238L74.0136 133.95L89.4341 124.359C97.8503 106.072 102.115 95.5482 102.229 92.7861Z" fill="#E65971"/>
<path d="M58.3957 114.52C62.607 122.177 67.9494 128.36 74.244 132.838L74.9106 133.401L73.4196 134.806C66.8167 130.201 61.3134 123.96 56.912 116.094L56.6641 115.647L58.3957 114.52Z" fill="#D2475F"/>
<path fill-rule="evenodd" clip-rule="evenodd" d="M107.393 85.4592C108.366 89.2961 108.218 91.4156 106.951 91.8177C105.683 92.2198 104.11 92.5246 102.23 92.7323C104.475 104.22 108.886 109.623 115.463 108.941C120.947 108.373 124.433 102.371 125.923 90.9362C123.303 91.074 121.388 90.7517 120.177 89.9691C118.967 89.1864 118.862 86.9702 119.862 83.3203L107.393 85.4592Z" fill="#F7CBBF"/>
<path d="M124.889 90.8018L126.952 91.0715L126.905 91.4257L126.807 92.1243C126.706 92.8163 126.598 93.4887 126.482 94.1413L126.363 94.7874C124.558 104.273 121.009 109.415 115.567 109.979C108.388 110.723 103.638 104.999 101.277 93.2897L101.207 92.933L103.248 92.5324L103.38 93.1866C103.469 93.618 103.561 94.0396 103.657 94.4516L103.802 95.0623C106.063 104.316 109.924 108.468 115.353 107.905C118.362 107.593 120.754 105.325 122.48 101.023L122.644 100.6C122.78 100.243 122.911 99.8723 123.038 99.4882L123.188 99.0209C123.312 98.6262 123.431 98.2181 123.546 97.7968L123.681 97.2847C123.837 96.6798 123.983 96.0487 124.122 95.3914L124.238 94.8214C124.257 94.7254 124.276 94.6288 124.294 94.5316L124.404 93.9424L124.51 93.3401C124.527 93.2387 124.544 93.1367 124.561 93.0342L124.66 92.4126L124.755 91.778C124.77 91.6711 124.785 91.5637 124.8 91.4558L124.889 90.8018Z" fill="#D2475F"/>
<path fill-rule="evenodd" clip-rule="evenodd" d="M107.564 86.042C108.377 89.0127 108.172 90.9381 106.951 91.8184C105.119 93.1389 113.993 90.0725 115.412 88.8696C116.042 88.3356 116.84 87.3988 117.807 86.0592L107.564 86.042Z" fill="#EDC2B6"/>
<path fill-rule="evenodd" clip-rule="evenodd" d="M126.741 66.3662C128.32 65.7404 129.312 66.1698 129.718 67.6544C130.326 69.8814 128.6 73.6688 126.074 72.7177L126.741 66.3662Z" fill="#E1BBB0"/>
<path fill-rule="evenodd" clip-rule="evenodd" d="M99.006 66.3662C97.4269 65.7404 96.4345 66.1698 96.0288 67.6544C95.4203 69.8814 97.1467 73.6688 99.6719 72.7177L99.006 66.3662Z" fill="#E1BBB0"/>
<path fill-rule="evenodd" clip-rule="evenodd" d="M126.992 68.224C126.856 80.6113 122.2 86.9123 113.024 87.1269C99.2598 87.4488 98.604 71.2823 98.9744 65.7197C99.2214 62.0113 98.9109 56.3948 98.043 48.8701C104.02 46.6386 107.123 45.5494 107.352 45.6024C107.581 45.6554 111.741 47.8941 119.832 52.3185L128.845 58.6591L126.992 68.224Z" fill="#F6D3C9"/>
<path fill-rule="evenodd" clip-rule="evenodd" d="M108.029 69.231C108.647 69.231 109.148 69.5816 109.148 68.9313C109.148 68.281 108.647 67.7539 108.029 67.7539C107.411 67.7539 106.91 68.281 106.91 68.9313C106.91 69.5816 107.411 69.231 108.029 69.231Z" fill="#5C4F77"/>
<path fill-rule="evenodd" clip-rule="evenodd" d="M117.917 69.231C118.535 69.231 119.036 69.5816 119.036 68.9313C119.036 68.281 118.535 67.7539 117.917 67.7539C117.299 67.7539 116.797 68.281 116.797 68.9313C116.797 69.5816 117.299 69.231 117.917 69.231Z" fill="#5C4F77"/>
<path fill-rule="evenodd" clip-rule="evenodd" d="M99.81 50.4739C101.371 49.2298 103.229 49.4981 105.384 51.2788C108.617 53.95 116.529 62.0485 125.158 58.1018C125.58 64.2203 126.204 67.9006 127.031 69.1427C127.999 65.7734 129.012 63.5976 130.07 62.6153C131.656 61.1419 136.495 55.277 132.568 47.4475C128.641 39.618 122.424 36.6052 117.341 35.5373C112.257 34.4695 103.573 34.9588 100.46 37.1332C98.3851 38.5829 97.1958 40.5999 96.8924 43.1843C92.8283 45.2476 90.763 48.2923 90.6964 52.3184C90.5966 58.3575 97.5527 62.1036 97.9796 64.3913C98.2642 65.9164 98.55 67.0505 98.8369 67.7935C99.916 63.7457 100.57 59.7015 100.797 55.6609C100.894 53.9283 100.565 52.1993 99.81 50.4739Z" fill="#7D4616"/>
<path d="M104.449 65.6454C106.284 63.3475 109.056 63.8895 110.366 65.6139" stroke="#5C4F77" stroke-width="1.1192"/>
<path d="M114.852 65.6454C116.687 63.3475 119.459 63.8895 120.769 65.6139" stroke="#5C4F77" stroke-width="1.1192"/>
<path d="M111.959 73.6182C109.972 75.4542 111.751 77.3976 113.585 75.7412" stroke="#D4A598" stroke-width="0.616016"/>
<mask id="mask2_702_81" style="mask-type:alpha" maskUnits="userSpaceOnUse" x="106" y="77" width="13" height="5">
<path d="M106.738 77.2754C109.073 79.9173 115.133 80.9895 118.831 77.619C118.203 80.4476 116.296 81.8959 113.11 81.9639C109.924 82.0319 107.8 80.4691 106.738 77.2754Z" fill="white"/>
</mask>
<g mask="url(#mask2_702_81)">
<path d="M106.738 77.2754C109.073 79.9173 115.133 80.9895 118.831 77.619C118.203 80.4476 116.296 81.8959 113.11 81.9639C109.924 82.0319 107.8 80.4691 106.738 77.2754Z" fill="#D4A598"/>
<path fill-rule="evenodd" clip-rule="evenodd" d="M106.738 75.7109C109.073 78.3527 115.133 79.4249 118.831 76.0545C118.203 78.8831 116.296 80.3314 113.11 80.3994C109.924 80.4674 107.8 78.9045 106.738 75.7109Z" fill="white"/>
</g>
</svg>
